<?xml version="1.0" encoding="UTF-8" standalone="no"?>
<svg width="150px" height="50px" viewBox="0 0 150 50" version="1.1" xmlns="http://www.w3.org/2000/svg" xmlns:xlink="http://www.w3.org/1999/xlink" xmlns:sketch="http://www.bohemiancoding.com/sketch/ns">
    <!-- Generator: Sketch Beta 3.1 (8603) - http://www.bohemiancoding.com/sketch -->
    <title>logo</title>
    <desc>Created with Sketch Beta.</desc>
    <defs>
        <path d="M42.5,30 L50,0 L43,0 L15.25,0 L10,0 L0,40 L10,40 L12.5,30 L12.5,30 L30,30 L42.5,30 L42.5,30 L42.5,30 Z M15,20 L17.5,10 L37.5,10 L35,20 L15,20 L15,20 Z M60,20 L62.5,10 L82.5,10 L80,20 L60,20 L60,20 Z M57.5,30 L55,40 L45,40 L55,0 L60.25,0 L88,0 L95,0 L85,40 L75,40 L77.5,30 L57.5,30 Z M122.5,10 L97.5,10 L100,0 L140,0 L137.5,10 L107.5,30 L132.5,30 L130,40 L90,40 L92.5,30 L122.5,10 Z" id="path-1"></path>
        <rect id="path-3" x="0" y="1" width="141" height="15"></rect>
    </defs>
    <g id="Page-1" stroke="none" stroke-width="1" fill="none" fill-rule="evenodd" sketch:type="MSPage">
        <g id="Symbols" sketch:type="MSArtboardGroup" transform="translate(-171.000000, -35.000000)">
            <g id="Sidebar" sketch:type="MSLayerGroup" transform="translate(128.000000, 0.000000)">
                <g id="logo--desert-chrome" transform="translate(48.000000, 40.000000)">
                    <mask id="mask-2" sketch:name="Logo" fill="white">
                        <use xlink:href="#path-1"></use>
                    </mask>
                    <g id="Logo">
                        <use stroke="#F9FAFC" stroke-width="5" fill="none" sketch:type="MSShapeGroup" xlink:href="#path-1"></use>
                        <use stroke="none" fill="#98B0C3" fill-rule="evenodd" xlink:href="#path-1"></use>
                        <use stroke="none" fill="none" xlink:href="#path-1"></use>
                    </g>
                    <g id="Desert-Chrome" mask="url(#mask-2)">
                        <g transform="translate(0.000000, 24.000000)">
                            <g id="Rectangle-121">
                                <use fill="#98B0C3" sketch:type="MSShapeGroup" xlink:href="#path-3"></use>
                                <use fill="#6B7B9C" xlink:href="#path-3"></use>
                            </g>
                            <rect id="Rectangle-122" fill="#5E778B" sketch:type="MSShapeGroup" x="0" y="0" width="141" height="5"></rect>
                        </g>
                    </g>
                </g>
            </g>
        </g>
    </g>
</svg>